<svg version="1.1" id="Layer_1" xmlns="http://www.w3.org/2000/svg" xmlns:xlink="http://www.w3.org/1999/xlink" x="0px" y="0px"
	 width="100%" viewBox="0 0 512 512" enable-background="new 0 0 512 512" xml:space="preserve">
<path fill="#020202" opacity="1.000000" stroke="none" 
	d="
M376.000000,1.000001 
	C379.030609,1.000000 382.061188,1.000000 385.644318,1.350504 
	C388.804413,4.113356 392.833862,6.071213 393.775208,9.016166 
	C398.010345,22.265537 401.159668,35.857105 405.113708,49.202866 
	C407.992279,58.918728 403.939240,66.910965 393.275970,69.278320 
	C373.274567,73.718842 353.594788,79.625565 333.824219,85.078285 
	C327.304504,86.876427 324.698975,86.220512 321.084839,80.456207 
	C321.179810,78.901245 320.846375,77.453674 321.416290,76.634827 
	C324.349060,72.421028 321.559113,70.111534 318.868347,67.472275 
	C310.791138,59.549629 302.875488,51.461987 294.776672,43.561882 
	C293.597778,42.411907 291.537689,40.995022 290.266693,41.298523 
	C281.646454,43.356991 273.128693,45.844360 264.051544,48.337677 
	C274.033417,58.374004 283.501984,67.921593 293.028900,77.410599 
	C293.654419,78.033638 294.901093,78.731560 295.562836,78.510109 
	C301.260864,76.603249 304.183685,80.231705 307.046082,84.421349 
	C307.322693,89.798195 305.093872,92.768280 300.222351,94.043770 
	C290.445679,96.603554 280.728912,99.391304 270.962738,101.992348 
	C252.026062,107.035797 233.060059,111.969284 214.129059,117.033821 
	C194.428543,122.304207 174.765839,127.715858 155.066559,132.990906 
	C136.863098,137.865433 118.633110,142.640869 100.414803,147.459946 
	C100.445068,147.638947 100.475342,147.817947 100.505608,147.996948 
	C102.331490,147.996948 104.157379,147.996948 105.983261,147.996948 
	C206.315598,147.996948 306.648102,148.077026 406.979919,147.845520 
	C415.037415,147.826920 421.132355,154.825394 421.049744,161.885223 
	C420.889862,175.549881 420.978271,189.217819 421.016266,202.884247 
	C421.029785,207.739944 419.381714,211.743423 415.584991,214.871780 
	C414.864288,215.465637 414.074371,216.515091 414.069702,217.358505 
	C413.980286,233.505798 414.003601,249.653702 414.003601,265.575592 
	C438.529663,273.803680 458.810608,287.360382 474.946198,307.312958 
	C491.634521,327.949036 500.783569,351.511505 502.859131,377.693054 
	C504.222931,394.896271 502.062683,411.901550 496.038727,428.265198 
	C494.117157,433.485077 490.421082,435.517090 484.865295,433.624878 
	C479.268097,430.263885 479.799438,425.716827 481.449768,420.765045 
	C487.592194,402.334442 488.561768,383.513275 484.670166,364.577332 
	C472.386261,304.806183 413.246704,265.929016 353.653137,278.235962 
	C308.861877,287.486023 274.521667,323.104797 266.683014,368.444214 
	C254.025681,441.655151 317.813599,507.084778 391.244141,496.140442 
	C423.361023,491.353607 448.855164,475.655731 467.389954,448.971741 
	C470.851898,443.987640 474.694824,441.403351 481.016754,443.653748 
	C482.180328,445.852234 484.192871,448.073761 483.784546,449.679840 
	C482.791199,453.586945 481.372406,457.781494 478.870148,460.830414 
	C472.899841,468.105011 466.549927,475.151978 459.697571,481.593262 
	C453.791016,487.145477 446.978760,491.734222 440.249786,496.996979 
	C460.907227,496.996979 481.306641,497.067627 501.704834,496.941559 
	C506.160675,496.914001 509.583771,497.765900 511.034363,502.553864 
	C512.434021,507.173553 510.361938,510.298676 507.000000,513.000000 
	C458.645782,513.000000 410.291534,513.000000 361.315125,512.603149 
	C357.460571,511.805206 354.193024,511.587250 351.001404,510.974091 
	C326.218201,506.212891 304.890717,494.677948 286.839417,477.245789 
	C270.577057,461.541229 259.505157,442.495087 253.565903,420.733429 
	C252.337677,416.233154 250.481689,415.946014 246.862411,415.953918 
	C209.894928,416.034271 172.927200,416.009735 135.959549,415.996002 
	C130.214233,415.993866 127.333870,413.446198 126.939484,407.744141 
	C128.661743,401.184357 130.272491,399.900146 136.829071,399.896088 
	C172.490662,399.874084 208.152267,399.884949 243.813858,399.884521 
	C245.745316,399.884491 247.676758,399.884521 250.194550,399.884521 
	C249.709045,394.216217 249.291504,389.341400 248.840347,384.074066 
	C246.381241,384.074066 244.411011,384.074066 242.440796,384.074066 
	C184.615692,384.073730 126.790581,384.081696 68.965477,384.064667 
	C59.630196,384.061920 54.023167,379.053589 54.011730,370.459930 
	C53.955383,328.132690 53.957035,285.805359 54.013298,243.478119 
	C54.023922,235.487473 59.552200,229.975693 67.560287,229.971664 
	C149.048660,229.930649 230.537079,229.937317 312.025482,229.959229 
	C318.005920,229.960846 320.345856,232.169205 321.063080,238.488342 
	C319.959076,244.162720 316.124817,245.501221 311.417328,245.530548 
	C306.501801,245.561172 301.585968,245.537384 296.899414,245.537384 
	C296.899414,255.726318 296.899414,265.113586 296.899414,274.591583 
	C308.050232,274.752655 318.942963,276.151733 328.644653,269.613892 
	C329.844330,268.805450 331.386719,268.429535 332.823578,268.061127 
	C343.834900,265.238007 354.859436,262.466370 366.065002,259.631866 
	C366.065002,255.454742 366.065002,250.700485 366.065002,245.535507 
	C358.666718,245.535507 351.538544,245.558655 344.410614,245.527695 
	C339.344147,245.505676 335.714355,243.584595 334.988220,237.702087 
	C335.688049,232.050690 338.944885,229.939453 343.961884,229.942719 
	C352.124023,229.948044 360.286957,229.875137 368.448090,229.967117 
	C376.489105,230.057724 381.863434,235.437805 382.008698,243.442688 
	C382.090302,247.938782 381.872223,252.446823 382.135681,256.929108 
	C382.213593,258.254395 383.304108,260.474121 384.218536,260.633698 
	C388.528809,261.385895 392.939117,261.564758 397.492188,261.963776 
	C397.492188,246.699509 397.492188,232.126144 397.492188,216.998032 
	C395.232513,216.998032 393.280518,216.998016 391.328522,216.998016 
	C279.390594,216.998016 167.452667,216.997375 55.514748,217.003845 
	C53.684456,217.003952 51.854172,217.091248 49.562111,217.082947 
	C45.656422,217.028046 42.212498,217.028046 38.178722,217.028046 
	C38.178722,219.543503 38.178722,221.493042 38.178722,223.442581 
	C38.178715,278.694275 38.178707,333.945953 38.178719,389.197662 
	C38.178719,400.662567 38.178745,400.662567 50.513512,399.725708 
	C67.282539,399.833344 83.601120,400.147308 99.902054,399.745544 
	C106.608765,399.580231 111.111488,401.386749 112.956955,408.367310 
	C110.506432,414.833649 108.713921,416.002380 101.634315,416.002686 
	C80.480034,416.003662 59.312805,415.573242 38.177692,416.209808 
	C29.450705,416.472626 21.825768,409.426758 21.867586,399.697388 
	C22.125322,339.733582 22.009794,279.768097 21.929764,219.803314 
	C21.927547,218.142090 21.418379,215.957413 20.304562,214.918488 
	C16.722591,211.577332 14.968049,207.690567 14.983139,202.840851 
	C15.023565,189.848587 15.013807,176.856064 14.975605,163.863785 
	C14.970817,162.235214 14.884704,160.553635 14.481929,158.987762 
	C10.684996,144.226395 6.800467,129.487595 2.964012,114.736343 
	C1.165601,107.821419 4.576331,100.990814 11.299274,99.065971 
	C23.172867,95.666443 35.158112,92.658195 47.085804,89.446014 
	C67.384727,83.979416 87.664307,78.440712 107.972527,73.009010 
	C126.892578,67.948593 145.847702,63.019413 164.772079,57.975056 
	C184.621994,52.684002 204.449844,47.310215 224.294525,41.999462 
	C242.593765,37.102295 260.906982,32.257408 279.205902,27.359085 
	C299.514679,21.922756 319.824554,16.490120 340.113861,10.981770 
	C352.096039,7.728718 364.039246,4.332073 376.000000,1.000001 
M44.108292,163.985657 
	C40.669224,164.275711 37.191097,164.355270 33.814453,164.981781 
	C32.776909,165.174271 31.263222,166.849915 31.245785,167.868301 
	C31.059370,178.754944 31.129877,189.645981 31.129877,200.407852 
	C41.158718,202.314835 41.506340,202.131348 46.519531,192.563690 
	C51.878853,183.284424 57.238171,174.005157 62.966400,164.087143 
	C56.463413,164.087143 50.738087,164.087143 44.108292,163.985657 
M95.986717,274.662140 
	C118.211357,274.662140 140.435989,274.662140 162.597107,274.662140 
	C162.597107,264.581573 162.597107,255.305191 162.597107,245.850784 
	C139.902390,245.850784 117.465004,245.850784 94.265923,245.565582 
	C86.192337,245.565582 78.118759,245.565582 70.005341,245.565582 
	C70.005341,255.539719 70.005341,264.914948 70.005341,274.432098 
	C78.578896,274.432098 86.833572,274.432098 95.986717,274.662140 
M235.500000,307.173584 
	C248.163284,307.173492 260.826752,307.204773 273.489624,307.133759 
	C275.080780,307.124847 277.198639,307.125122 278.169952,306.186859 
	C283.349670,301.183167 288.242249,295.882202 293.416138,290.494568 
	C218.715805,290.494568 144.509109,290.494568 70.169510,290.494568 
	C70.169510,316.445618 70.169510,342.018829 70.169510,368.222656 
	C72.267715,368.222656 74.047409,368.222656 75.827103,368.222656 
	C132.311935,368.222656 188.796753,368.222900 245.281586,368.220886 
	C246.447647,368.220856 247.666779,368.398102 248.762207,368.112762 
	C249.570465,367.902222 250.695068,367.184906 250.857147,366.499207 
	C251.786224,362.568665 252.469696,358.580017 253.347519,354.036621 
	C250.631012,354.036621 248.826538,354.036652 247.022079,354.036621 
	C222.195419,354.036530 197.368744,354.038910 172.542084,354.030914 
	C170.877502,354.030396 169.169830,354.175110 167.556992,353.864288 
	C163.702896,353.121521 161.284485,350.764801 161.028534,346.750336 
	C160.773453,342.749298 162.735413,339.984711 166.608673,338.982025 
	C168.827072,338.407745 171.197769,338.210419 173.500580,338.206055 
	C200.326614,338.155212 227.152863,338.199127 253.978745,338.117371 
	C255.828476,338.111694 258.633575,337.906738 259.352295,336.762756 
	C261.950623,332.626953 263.847198,328.050262 266.304382,323.036621 
	C263.626862,323.036621 261.814392,323.036621 260.001923,323.036621 
	C231.009720,323.036591 202.017502,323.037720 173.025299,323.033478 
	C171.359634,323.033234 169.668869,323.164520 168.033249,322.930634 
	C163.908829,322.340820 161.332245,319.967896 161.032791,315.730804 
	C160.749802,311.726990 162.755264,308.995331 166.622803,307.972168 
	C168.680450,307.427795 170.880096,307.211945 173.016602,307.206268 
	C193.510941,307.151794 214.005508,307.173828 235.500000,307.173584 
M279.036438,274.692200 
	C279.649200,274.074249 280.787506,273.463074 280.795624,272.837280 
	C280.911469,263.892426 280.874695,254.945587 280.874695,245.885620 
	C246.499527,245.885620 212.601517,245.885620 178.769653,245.885620 
	C178.769653,255.638901 178.769653,265.039368 178.769653,274.709106 
	C212.146225,274.709106 245.128281,274.709106 279.036438,274.692200 
M114.494522,115.006500 
	C116.846466,117.352364 119.115555,119.791061 121.590149,121.999481 
	C122.614067,122.913269 124.263618,124.107933 125.312973,123.856659 
	C134.059814,121.762093 142.733002,119.359840 152.051376,116.885025 
	C142.132507,106.930298 132.922714,97.615608 123.586494,88.429405 
	C122.666130,87.523827 120.815376,86.751366 119.660561,87.026329 
	C111.178017,89.046021 102.762764,91.348351 93.253929,93.842957 
	C100.681190,101.242744 107.337692,107.874626 114.494522,115.006500 
M201.013077,93.493050 
	C202.428040,94.906258 203.734619,96.455276 205.287918,97.695175 
	C206.899841,98.981873 209.007278,101.191216 210.454834,100.887161 
	C219.123474,99.066330 227.664276,96.636917 236.421402,94.366570 
	C235.883453,93.143959 235.795166,92.586861 235.472748,92.262497 
	C226.544388,83.279907 217.620697,74.292061 208.596359,65.406509 
	C207.769043,64.591888 206.123581,63.850243 205.111465,64.100349 
	C196.501968,66.227852 187.951202,68.593033 178.616241,71.092224 
	C186.406525,78.884201 193.458984,85.938202 201.013077,93.493050 
M41.373516,114.112320 
	C39.180031,112.581589 36.859589,109.621544 34.818169,109.802864 
	C29.798122,110.248764 24.906443,112.139854 19.174294,113.658752 
	C22.373615,125.734062 25.452942,137.356461 28.738295,149.756485 
	C41.418968,146.396896 53.637428,143.159760 66.906693,139.644226 
	C58.041248,130.779175 49.958012,122.696289 41.373516,114.112320 
M117.530914,172.025421 
	C112.094612,181.474670 106.658310,190.923920 100.789864,201.124298 
	C106.678719,201.124298 111.723503,200.480545 116.538551,201.258606 
	C126.496750,202.867737 132.407135,199.109695 136.560272,189.987686 
	C140.571686,181.176971 146.043579,173.031204 151.245071,163.944992 
	C143.798981,163.944992 137.281158,164.464417 130.886063,163.800919 
	C124.308769,163.118484 120.066177,165.146637 117.530914,172.025421 
M310.516968,163.944580 
	C308.685638,163.944595 306.829132,164.139130 305.027924,163.906204 
	C300.564240,163.328964 297.713715,164.723099 295.697205,169.108521 
	C293.277527,174.370850 289.887115,179.182480 286.986755,184.229340 
	C283.903778,189.593994 280.902405,195.005569 277.458252,201.119354 
	C287.077332,201.119354 295.556763,201.253433 304.023376,200.983856 
	C305.391510,200.940292 307.167694,199.380829 307.965759,198.048981 
	C313.949768,188.063248 319.750458,177.967270 325.561279,167.878616 
	C326.168243,166.824905 326.468536,165.594543 327.104431,163.944489 
	C321.472137,163.944489 316.490662,163.944489 310.516968,163.944580 
M191.358871,197.072098 
	C190.909546,198.234314 190.460220,199.396530 189.792252,201.124298 
	C196.093887,201.124298 201.805084,200.590988 207.374130,201.253159 
	C215.130157,202.175323 219.875549,199.795959 223.363907,192.416656 
	C227.872589,182.878937 233.759903,173.992920 239.562363,163.945297 
	C230.457764,163.945297 222.352264,163.723038 214.275101,164.102936 
	C212.277649,164.196884 209.596741,165.770950 208.552963,167.474976 
	C202.728378,176.983948 197.310272,186.741898 191.358871,197.072098 
M404.898376,189.479355 
	C404.898376,181.069275 404.898376,172.659180 404.898376,163.948807 
	C399.259125,163.948807 394.445343,163.853180 389.640564,164.018051 
	C388.482208,164.057800 386.813629,164.639023 386.292847,165.514481 
	C379.443268,177.028351 372.757446,188.639664 365.734772,200.736115 
	C379.145844,200.736115 391.789276,200.736115 404.898193,200.736115 
	C404.898193,197.058731 404.898193,193.764954 404.898376,189.479355 
M255.945450,62.554184 
	C253.352417,59.965919 250.828293,57.302238 248.126297,54.833244 
	C247.264145,54.045437 245.775131,53.139484 244.836578,53.368416 
	C238.141769,55.001404 231.515198,56.914131 224.216019,58.916428 
	C234.228149,68.901398 243.612045,78.331642 253.126129,87.628677 
	C254.004440,88.486954 255.850754,89.080933 257.010559,88.804222 
	C263.415283,87.276108 269.746460,85.439613 276.870270,83.499870 
	C269.775299,76.397278 263.110687,69.725533 255.945450,62.554184 
M346.428741,64.979149 
	C351.489075,63.601372 356.549408,62.223598 362.045288,60.727242 
	C352.089630,50.740170 342.496490,41.088158 332.840576,31.499395 
	C332.241455,30.904451 331.036133,30.361525 330.303131,30.546877 
	C323.528900,32.259792 316.796570,34.138412 309.655396,36.076508 
	C318.878357,45.353508 327.679749,53.936275 336.128906,62.852840 
	C339.053223,65.938957 341.809723,67.017868 346.428741,64.979149 
M155.923721,98.576332 
	C159.820145,102.451920 163.651352,106.397156 167.661179,110.151627 
	C168.603668,111.034096 170.311127,111.952637 171.390869,111.695671 
	C177.931763,110.138977 184.392700,108.246277 191.348022,106.337517 
	C181.363419,96.248734 171.815155,86.568520 162.195526,76.959755 
	C161.607620,76.372520 160.349030,75.936012 159.581131,76.131393 
	C152.937897,77.821655 146.335632,79.672981 138.750977,81.740845 
	C144.772278,87.640747 150.097717,92.858826 155.923721,98.576332 
M55.872433,106.628891 
	C64.582878,115.316109 73.257027,124.040466 82.053406,132.639771 
	C83.061737,133.625504 84.924507,134.666061 86.099281,134.398727 
	C92.685867,132.899902 99.182892,131.007462 106.158394,129.128754 
	C96.196533,119.076370 86.663589,109.425209 77.061211,99.843643 
	C76.468910,99.252625 75.225777,98.790154 74.460464,98.978600 
	C68.024055,100.563560 61.625004,102.302017 55.244202,104.098999 
	C55.107262,104.137558 55.321289,105.422348 55.872433,106.628891 
M240.367386,193.911591 
	C239.142288,196.176193 237.917191,198.440796 236.409241,201.228271 
	C239.661484,201.228271 242.211487,200.851395 244.610809,201.293060 
	C255.398575,203.278854 262.004425,199.176620 266.376678,188.977417 
	C270.047760,180.413742 275.566345,172.642090 280.621063,163.907990 
	C273.132690,163.907990 266.504791,163.740784 259.898804,164.046616 
	C258.549408,164.109085 256.841522,165.683792 256.048584,167.009766 
	C250.849976,175.703217 245.857239,184.519806 240.367386,193.911591 
M77.278900,201.228256 
	C79.361404,200.679855 82.542374,200.803864 83.354187,199.477631 
	C90.415955,187.941299 97.052917,176.144943 104.115387,163.907394 
	C96.760300,163.907394 90.138992,163.856750 83.520142,163.961685 
	C82.520416,163.977524 81.045181,164.430984 80.611404,165.166504 
	C73.655701,176.960861 66.833481,188.833939 59.669254,201.228271 
	C65.740486,201.228271 71.037506,201.228271 77.278900,201.228256 
M348.372467,199.354843 
	C355.080170,187.785446 361.787872,176.216049 368.924683,163.906525 
	C362.051361,163.906525 356.112396,164.075012 350.189789,163.836533 
	C347.158447,163.714462 345.437805,164.633774 343.920807,167.359283 
	C338.186981,177.661011 332.151520,187.794647 326.262512,198.010529 
	C325.750519,198.898727 325.483582,199.928223 324.970001,201.228271 
	C329.979523,201.228271 334.474518,201.367264 338.955811,201.179733 
	C341.976318,201.053329 344.977478,200.465958 348.372467,199.354843 
M184.737381,177.232605 
	C187.160202,172.966354 189.583008,168.700089 192.305267,163.906555 
	C185.350937,163.906555 179.069977,163.704681 172.817734,164.039154 
	C171.114365,164.130264 168.839371,165.429108 167.949600,166.868027 
	C162.896912,175.039139 158.170807,183.412766 153.364395,191.735306 
	C151.666885,194.674637 150.056335,197.664185 148.075012,201.225922 
	C155.529587,201.225922 162.146698,201.364639 168.747879,201.102615 
	C169.988647,201.053391 171.577225,199.653915 172.304428,198.453079 
	C176.424088,191.650085 180.330521,184.717957 184.737381,177.232605 
M357.729248,23.158329 
	C355.154572,23.955963 352.579895,24.753595 349.374176,25.746725 
	C357.967072,34.364307 366.315674,42.014343 373.757629,50.462952 
	C378.449341,55.789242 382.888000,56.689907 388.928528,52.970222 
	C388.928528,52.602043 389.065704,51.926373 388.908142,51.328384 
	C386.204865,41.070126 383.435486,30.829222 380.752502,20.565722 
	C379.992615,17.658918 378.115021,17.606119 375.782837,18.251072 
	C370.030670,19.841778 364.272400,21.410246 357.729248,23.158329 
z"/>
<path fill="#FFFFFF" opacity="1.000000" stroke="none" 
	d="
M375.531342,1.000001 
	C364.039246,4.332073 352.096039,7.728718 340.113861,10.981770 
	C319.824554,16.490120 299.514679,21.922756 279.205902,27.359085 
	C260.906982,32.257408 242.593765,37.102295 224.294525,41.999462 
	C204.449844,47.310215 184.621994,52.684002 164.772079,57.975056 
	C145.847702,63.019413 126.892578,67.948593 107.972527,73.009010 
	C87.664307,78.440712 67.384727,83.979416 47.085804,89.446014 
	C35.158112,92.658195 23.172867,95.666443 11.299274,99.065971 
	C4.576331,100.990814 1.165601,107.821419 2.964012,114.736343 
	C6.800467,129.487595 10.684996,144.226395 14.481929,158.987762 
	C14.884704,160.553635 14.970817,162.235214 14.975605,163.863785 
	C15.013807,176.856064 15.023565,189.848587 14.983139,202.840851 
	C14.968049,207.690567 16.722591,211.577332 20.304562,214.918488 
	C21.418379,215.957413 21.927547,218.142090 21.929764,219.803314 
	C22.009794,279.768097 22.125322,339.733582 21.867586,399.697388 
	C21.825768,409.426758 29.450705,416.472626 38.177692,416.209808 
	C59.312805,415.573242 80.480034,416.003662 101.634315,416.002686 
	C108.713921,416.002380 110.506432,414.833649 113.415085,408.359070 
	C118.304535,408.040894 122.602409,408.083313 126.900276,408.125732 
	C127.333870,413.446198 130.214233,415.993866 135.959549,415.996002 
	C172.927200,416.009735 209.894928,416.034271 246.862411,415.953918 
	C250.481689,415.946014 252.337677,416.233154 253.565903,420.733429 
	C259.505157,442.495087 270.577057,461.541229 286.839417,477.245789 
	C304.890717,494.677948 326.218201,506.212891 351.001404,510.974091 
	C354.193024,511.587250 357.460571,511.805206 360.846497,512.603149 
	C241.042068,513.000000 121.084145,513.000000 1.063107,513.000000 
	C1.063107,342.435272 1.063107,171.870483 1.063107,1.000000 
	C125.687393,1.000000 250.375046,1.000000 375.531342,1.000001 
z"/>
<path fill="#FFFFFF" opacity="1.000000" stroke="none" 
	d="
M321.073151,80.853592 
	C324.698975,86.220512 327.304504,86.876427 333.824219,85.078285 
	C353.594788,79.625565 373.274567,73.718842 393.275970,69.278320 
	C403.939240,66.910965 407.992279,58.918728 405.113708,49.202866 
	C401.159668,35.857105 398.010345,22.265537 393.775208,9.016166 
	C392.833862,6.071213 388.804413,4.113356 386.098419,1.350504 
	C428.300568,1.000000 470.601166,1.000000 512.950867,1.000000 
	C512.950867,171.666656 512.950867,342.333313 512.950867,513.000000 
	C511.329529,513.000000 509.664246,513.000000 507.499481,513.000000 
	C510.361938,510.298676 512.434021,507.173553 511.034363,502.553864 
	C509.583771,497.765900 506.160675,496.914001 501.704834,496.941559 
	C481.306641,497.067627 460.907227,496.996979 440.249786,496.996979 
	C446.978760,491.734222 453.791016,487.145477 459.697571,481.593262 
	C466.549927,475.151978 472.899841,468.105011 478.870148,460.830414 
	C481.372406,457.781494 482.791199,453.586945 483.784546,449.679840 
	C484.192871,448.073761 482.180328,445.852234 481.178680,443.311462 
	C482.397064,439.786682 483.705780,436.861145 485.014465,433.935577 
	C490.421082,435.517090 494.117157,433.485077 496.038727,428.265198 
	C502.062683,411.901550 504.222931,394.896271 502.859131,377.693054 
	C500.783569,351.511505 491.634521,327.949036 474.946198,307.312958 
	C458.810608,287.360382 438.529663,273.803680 414.003601,265.575592 
	C414.003601,249.653702 413.980286,233.505798 414.069702,217.358505 
	C414.074371,216.515091 414.864288,215.465637 415.584991,214.871780 
	C419.381714,211.743423 421.029785,207.739944 421.016266,202.884247 
	C420.978271,189.217819 420.889862,175.549881 421.049744,161.885223 
	C421.132355,154.825394 415.037415,147.826920 406.979919,147.845520 
	C306.648102,148.077026 206.315598,147.996948 105.983261,147.996948 
	C104.157379,147.996948 102.331490,147.996948 100.505608,147.996948 
	C100.475342,147.817947 100.445068,147.638947 100.414803,147.459946 
	C118.633110,142.640869 136.863098,137.865433 155.066559,132.990906 
	C174.765839,127.715858 194.428543,122.304207 214.129059,117.033821 
	C233.060059,111.969284 252.026062,107.035797 270.962738,101.992348 
	C280.728912,99.391304 290.445679,96.603554 300.222351,94.043770 
	C305.093872,92.768280 307.322693,89.798195 307.443481,84.412735 
	C312.276367,82.948761 316.674744,81.901176 321.073151,80.853592 
z"/>
<path fill="#DCDCDC" opacity="1.000000" stroke="none" 
	d="
M484.865295,433.624878 
	C483.705780,436.861145 482.397064,439.786682 480.926422,443.054535 
	C474.694824,441.403351 470.851898,443.987640 467.389954,448.971741 
	C448.855164,475.655731 423.361023,491.353607 391.244141,496.140442 
	C317.813599,507.084778 254.025681,441.655151 266.683014,368.444214 
	C274.521667,323.104797 308.861877,287.486023 353.653137,278.235962 
	C413.246704,265.929016 472.386261,304.806183 484.670166,364.577332 
	C488.561768,383.513275 487.592194,402.334442 481.449768,420.765045 
	C479.799438,425.716827 479.268097,430.263885 484.865295,433.624878 
M293.015991,397.626740 
	C294.661804,398.414490 296.266541,399.306610 297.959900,399.973633 
	C312.759064,405.803101 326.337128,403.328827 337.670807,392.480957 
	C348.540253,382.077393 351.877350,368.939514 347.044830,354.521301 
	C341.871582,339.086334 330.546600,330.609161 314.484680,329.211731 
	C297.786438,327.758942 282.269257,338.417755 277.026764,354.086151 
	C271.563782,370.413513 277.483795,386.960571 293.015991,397.626740 
M467.751404,341.778290 
	C453.578156,326.216309 430.590088,324.654877 415.382172,338.221191 
	C400.298004,351.677185 398.664337,374.448944 411.678528,389.847626 
	C424.765869,405.332855 447.899536,407.272339 463.632690,394.203308 
	C479.228882,381.248138 481.215729,358.684998 467.751404,341.778290 
M358.722351,287.098389 
	C341.763214,296.630585 334.797180,315.316742 341.549683,333.163483 
	C347.729553,349.496796 366.161255,359.736053 383.525635,355.765900 
	C398.359100,352.374359 408.344147,343.016754 411.842560,328.104401 
	C415.339355,313.199005 410.817780,300.328003 398.718048,290.837341 
	C386.651093,281.372437 373.323273,280.287628 358.722351,287.098389 
M452.082794,436.780640 
	C451.317627,433.563812 450.876068,430.226898 449.734100,427.149902 
	C443.036713,409.104401 421.778503,399.448792 403.380646,405.952332 
	C384.497223,412.627502 374.002899,433.318176 380.154327,451.745361 
	C386.332703,470.253204 403.815460,480.623108 422.750214,477.011108 
	C440.987457,473.532104 453.224548,457.190826 452.082794,436.780640 
M327.752045,404.980072 
	C307.972748,410.961731 296.617676,428.400360 300.095215,447.454254 
	C303.830261,467.919037 323.546875,481.061340 344.366913,476.964050 
	C363.593536,473.180359 376.904541,452.913177 372.784302,433.696075 
	C368.381561,413.161316 348.789490,400.373444 327.752045,404.980072 
M389.923431,408.618866 
	C402.415771,400.108582 406.577881,386.577240 400.613678,373.864136 
	C395.117249,362.148193 381.141510,355.938629 368.760498,359.711517 
	C353.785889,364.274780 345.768158,380.310516 351.239441,394.754272 
	C356.978119,409.903961 373.821899,416.198883 389.923431,408.618866 
z"/>
<path fill="#57585A" opacity="1.000000" stroke="none" 
	d="
M235.000000,307.173767 
	C214.005508,307.173828 193.510941,307.151794 173.016602,307.206268 
	C170.880096,307.211945 168.680450,307.427795 166.622803,307.972168 
	C162.755264,308.995331 160.749802,311.726990 161.032791,315.730804 
	C161.332245,319.967896 163.908829,322.340820 168.033249,322.930634 
	C169.668869,323.164520 171.359634,323.033234 173.025299,323.033478 
	C202.017502,323.037720 231.009720,323.036591 260.001923,323.036621 
	C261.814392,323.036621 263.626862,323.036621 266.304382,323.036621 
	C263.847198,328.050262 261.950623,332.626953 259.352295,336.762756 
	C258.633575,337.906738 255.828476,338.111694 253.978745,338.117371 
	C227.152863,338.199127 200.326614,338.155212 173.500580,338.206055 
	C171.197769,338.210419 168.827072,338.407745 166.608673,338.982025 
	C162.735413,339.984711 160.773453,342.749298 161.028534,346.750336 
	C161.284485,350.764801 163.702896,353.121521 167.556992,353.864288 
	C169.169830,354.175110 170.877502,354.030396 172.542084,354.030914 
	C197.368744,354.038910 222.195419,354.036530 247.022079,354.036621 
	C248.826538,354.036652 250.631012,354.036621 253.347519,354.036621 
	C252.469696,358.580017 251.786224,362.568665 250.857147,366.499207 
	C250.695068,367.184906 249.570465,367.902222 248.762207,368.112762 
	C247.666779,368.398102 246.447647,368.220856 245.281586,368.220886 
	C188.796753,368.222900 132.311935,368.222656 75.827103,368.222656 
	C74.047409,368.222656 72.267715,368.222656 70.169510,368.222656 
	C70.169510,342.018829 70.169510,316.445618 70.169510,290.494568 
	C144.509109,290.494568 218.715805,290.494568 293.416138,290.494568 
	C288.242249,295.882202 283.349670,301.183167 278.169952,306.186859 
	C277.198639,307.125122 275.080780,307.124847 273.489624,307.133759 
	C260.826752,307.204773 248.163284,307.173492 235.000000,307.173767 
M87.446793,347.924103 
	C88.665543,352.592926 91.970665,354.074860 96.457954,354.057587 
	C110.768349,354.002502 125.079193,354.068939 139.389648,354.021423 
	C144.897507,354.003143 148.709351,350.822784 148.769257,346.414276 
	C148.827911,342.097351 145.059570,338.317627 139.745911,338.247986 
	C125.271446,338.058228 110.790939,338.043671 96.316864,338.247070 
	C90.329262,338.331177 87.804161,341.171295 87.446793,347.924103 
M104.542442,307.168030 
	C100.908966,307.345245 97.223946,307.203857 93.655197,307.781158 
	C89.297195,308.486206 86.874107,311.537720 87.282784,315.904205 
	C87.683617,320.186676 90.390549,322.944458 94.897324,322.970673 
	C110.348091,323.060547 125.800545,323.084045 141.250534,322.938660 
	C145.512054,322.898590 148.114136,319.955322 148.553223,316.040436 
	C148.995895,312.093506 146.996338,308.924927 142.817657,307.888153 
	C140.913559,307.415771 138.898773,307.210815 136.932236,307.198639 
	C126.465317,307.133698 115.997787,307.168213 104.542442,307.168030 
z"/>
<path fill="#57585A" opacity="1.000000" stroke="none" 
	d="
M126.939484,407.744141 
	C122.602409,408.083313 118.304535,408.040894 113.548538,408.006714 
	C111.111488,401.386749 106.608765,399.580231 99.902054,399.745544 
	C83.601120,400.147308 67.282539,399.833344 50.495369,399.289062 
	C50.021069,338.226257 50.022476,277.682068 50.023884,217.137848 
	C51.854172,217.091248 53.684456,217.003952 55.514748,217.003845 
	C167.452667,216.997375 279.390594,216.998016 391.328522,216.998016 
	C393.280518,216.998016 395.232513,216.998032 397.492188,216.998032 
	C397.492188,232.126144 397.492188,246.699509 397.492188,261.963776 
	C392.939117,261.564758 388.528809,261.385895 384.218536,260.633698 
	C383.304108,260.474121 382.213593,258.254395 382.135681,256.929108 
	C381.872223,252.446823 382.090302,247.938782 382.008698,243.442688 
	C381.863434,235.437805 376.489105,230.057724 368.448090,229.967117 
	C360.286957,229.875137 352.124023,229.948044 343.961884,229.942719 
	C338.944885,229.939453 335.688049,232.050690 334.538879,237.596283 
	C329.726440,237.952332 325.421692,238.037796 321.116974,238.123245 
	C320.345856,232.169205 318.005920,229.960846 312.025482,229.959229 
	C230.537079,229.937317 149.048660,229.930649 67.560287,229.971664 
	C59.552200,229.975693 54.023922,235.487473 54.013298,243.478119 
	C53.957035,285.805359 53.955383,328.132690 54.011730,370.459930 
	C54.023167,379.053589 59.630196,384.061920 68.965477,384.064667 
	C126.790581,384.081696 184.615692,384.073730 242.440796,384.074066 
	C244.411011,384.074066 246.381241,384.074066 248.840347,384.074066 
	C249.291504,389.341400 249.709045,394.216217 250.194550,399.884521 
	C247.676758,399.884521 245.745316,399.884491 243.813858,399.884521 
	C208.152267,399.884949 172.490662,399.874084 136.829071,399.896088 
	C130.272491,399.900146 128.661743,401.184357 126.939484,407.744141 
z"/>
<path fill="#DCDCDC" opacity="1.000000" stroke="none" 
	d="
M278.573395,274.700653 
	C245.128281,274.709106 212.146225,274.709106 178.769653,274.709106 
	C178.769653,265.039368 178.769653,255.638901 178.769653,245.885620 
	C212.601517,245.885620 246.499527,245.885620 280.874695,245.885620 
	C280.874695,254.945587 280.911469,263.892426 280.795624,272.837280 
	C280.787506,273.463074 279.649200,274.074249 278.573395,274.700653 
z"/>
<path fill="#4B4C4E" opacity="1.000000" stroke="none" 
	d="
M49.562111,217.082947 
	C50.022476,277.682068 50.021069,338.226257 50.037804,399.207092 
	C38.178745,400.662567 38.178719,400.662567 38.178719,389.197662 
	C38.178707,333.945953 38.178715,278.694275 38.178722,223.442581 
	C38.178722,221.493042 38.178722,219.543503 38.178722,217.028046 
	C42.212498,217.028046 45.656422,217.028046 49.562111,217.082947 
z"/>
<path fill="#E0E0E0" opacity="1.000000" stroke="none" 
	d="
M95.027618,245.850784 
	C117.465004,245.850784 139.902390,245.850784 162.597107,245.850784 
	C162.597107,255.305191 162.597107,264.581573 162.597107,274.662140 
	C140.435989,274.662140 118.211357,274.662140 95.513702,274.116272 
	C95.036331,264.330536 95.031975,255.090668 95.027618,245.850784 
z"/>
<path fill="#DCDCDC" opacity="1.000000" stroke="none" 
	d="
M321.063080,238.488342 
	C325.421692,238.037796 329.726440,237.952332 334.480469,237.972672 
	C335.714355,243.584595 339.344147,245.505676 344.410614,245.527695 
	C351.538544,245.558655 358.666718,245.535507 366.065002,245.535507 
	C366.065002,250.700485 366.065002,255.454742 366.065002,259.631866 
	C354.859436,262.466370 343.834900,265.238007 332.823578,268.061127 
	C331.386719,268.429535 329.844330,268.805450 328.644653,269.613892 
	C318.942963,276.151733 308.050232,274.752655 296.899414,274.591583 
	C296.899414,265.113586 296.899414,255.726318 296.899414,245.537384 
	C301.585968,245.537384 306.501801,245.561172 311.417328,245.530548 
	C316.124817,245.501221 319.959076,244.162720 321.063080,238.488342 
z"/>
<path fill="#57585A" opacity="1.000000" stroke="none" 
	d="
M321.084839,80.456200 
	C316.674744,81.901176 312.276367,82.948761 307.480530,84.004944 
	C304.183685,80.231705 301.260864,76.603249 295.562836,78.510109 
	C294.901093,78.731560 293.654419,78.033638 293.028900,77.410599 
	C283.501984,67.921593 274.033417,58.374004 264.051544,48.337677 
	C273.128693,45.844360 281.646454,43.356991 290.266693,41.298523 
	C291.537689,40.995022 293.597778,42.411907 294.776672,43.561882 
	C302.875488,51.461987 310.791138,59.549629 318.868347,67.472275 
	C321.559113,70.111534 324.349060,72.421028 321.416290,76.634827 
	C320.846375,77.453674 321.179810,78.901245 321.084839,80.456200 
z"/>
<path fill="#565759" opacity="1.000000" stroke="none" 
	d="
M114.244354,114.756500 
	C107.337692,107.874626 100.681190,101.242744 93.253929,93.842957 
	C102.762764,91.348351 111.178017,89.046021 119.660561,87.026329 
	C120.815376,86.751366 122.666130,87.523827 123.586494,88.429405 
	C132.922714,97.615608 142.132507,106.930298 152.051376,116.885025 
	C142.733002,119.359840 134.059814,121.762093 125.312973,123.856659 
	C124.263618,124.107933 122.614067,122.913269 121.590149,121.999481 
	C119.115555,119.791061 116.846466,117.352364 114.244354,114.756500 
z"/>
<path fill="#565759" opacity="1.000000" stroke="none" 
	d="
M200.762268,93.242630 
	C193.458984,85.938202 186.406525,78.884201 178.616241,71.092224 
	C187.951202,68.593033 196.501968,66.227852 205.111465,64.100349 
	C206.123581,63.850243 207.769043,64.591888 208.596359,65.406509 
	C217.620697,74.292061 226.544388,83.279907 235.472748,92.262497 
	C235.795166,92.586861 235.883453,93.143959 236.421402,94.366570 
	C227.664276,96.636917 219.123474,99.066330 210.454834,100.887161 
	C209.007278,101.191216 206.899841,98.981873 205.287918,97.695175 
	C203.734619,96.455276 202.428040,94.906258 200.762268,93.242630 
z"/>
<path fill="#565759" opacity="1.000000" stroke="none" 
	d="
M41.624146,114.362869 
	C49.958012,122.696289 58.041248,130.779175 66.906693,139.644226 
	C53.637428,143.159760 41.418968,146.396896 28.738295,149.756485 
	C25.452942,137.356461 22.373615,125.734062 19.174294,113.658752 
	C24.906443,112.139854 29.798122,110.248764 34.818169,109.802864 
	C36.859589,109.621544 39.180031,112.581589 41.624146,114.362869 
z"/>
<path fill="#57585A" opacity="1.000000" stroke="none" 
	d="
M117.712181,171.704102 
	C120.066177,165.146637 124.308769,163.118484 130.886063,163.800919 
	C137.281158,164.464417 143.798981,163.944992 151.245071,163.944992 
	C146.043579,173.031204 140.571686,181.176971 136.560272,189.987686 
	C132.407135,199.109695 126.496750,202.867737 116.538551,201.258606 
	C111.723503,200.480545 106.678719,201.124298 100.789864,201.124298 
	C106.658310,190.923920 112.094612,181.474670 117.712181,171.704102 
z"/>
<path fill="#57585A" opacity="1.000000" stroke="none" 
	d="
M311.013062,163.944534 
	C316.490662,163.944489 321.472137,163.944489 327.104431,163.944489 
	C326.468536,165.594543 326.168243,166.824905 325.561279,167.878616 
	C319.750458,177.967270 313.949768,188.063248 307.965759,198.048981 
	C307.167694,199.380829 305.391510,200.940292 304.023376,200.983856 
	C295.556763,201.253433 287.077332,201.119354 277.458252,201.119354 
	C280.902405,195.005569 283.903778,189.593994 286.986755,184.229340 
	C289.887115,179.182480 293.277527,174.370850 295.697205,169.108521 
	C297.713715,164.723099 300.564240,163.328964 305.027924,163.906204 
	C306.829132,164.139130 308.685638,163.944595 311.013062,163.944534 
z"/>
<path fill="#57585A" opacity="1.000000" stroke="none" 
	d="
M191.556046,196.743408 
	C197.310272,186.741898 202.728378,176.983948 208.552963,167.474976 
	C209.596741,165.770950 212.277649,164.196884 214.275101,164.102936 
	C222.352264,163.723038 230.457764,163.945297 239.562363,163.945297 
	C233.759903,173.992920 227.872589,182.878937 223.363907,192.416656 
	C219.875549,199.795959 215.130157,202.175323 207.374130,201.253159 
	C201.805084,200.590988 196.093887,201.124298 189.792252,201.124298 
	C190.460220,199.396530 190.909546,198.234314 191.556046,196.743408 
z"/>
<path fill="#57585A" opacity="1.000000" stroke="none" 
	d="
M404.898285,189.975266 
	C404.898193,193.764954 404.898193,197.058731 404.898193,200.736115 
	C391.789276,200.736115 379.145844,200.736115 365.734772,200.736115 
	C372.757446,188.639664 379.443268,177.028351 386.292847,165.514481 
	C386.813629,164.639023 388.482208,164.057800 389.640564,164.018051 
	C394.445343,163.853180 399.259125,163.948807 404.898376,163.948807 
	C404.898376,172.659180 404.898376,181.069275 404.898285,189.975266 
z"/>
<path fill="#FBFBFB" opacity="1.000000" stroke="none" 
	d="
M256.195770,62.803986 
	C263.110687,69.725533 269.775299,76.397278 276.870270,83.499870 
	C269.746460,85.439613 263.415283,87.276108 257.010559,88.804222 
	C255.850754,89.080933 254.004440,88.486954 253.126129,87.628677 
	C243.612045,78.331642 234.228149,68.901398 224.216019,58.916428 
	C231.515198,56.914131 238.141769,55.001404 244.836578,53.368416 
	C245.775131,53.139484 247.264145,54.045437 248.126297,54.833244 
	C250.828293,57.302238 253.352417,59.965919 256.195770,62.803986 
z"/>
<path fill="#FBFBFB" opacity="1.000000" stroke="none" 
	d="
M346.020325,65.052734 
	C341.809723,67.017868 339.053223,65.938957 336.128906,62.852840 
	C327.679749,53.936275 318.878357,45.353508 309.655396,36.076508 
	C316.796570,34.138412 323.528900,32.259792 330.303131,30.546877 
	C331.036133,30.361525 332.241455,30.904451 332.840576,31.499395 
	C342.496490,41.088158 352.089630,50.740170 362.045288,60.727242 
	C356.549408,62.223598 351.489075,63.601372 346.020325,65.052734 
z"/>
<path fill="#FBFBFB" opacity="1.000000" stroke="none" 
	d="
M155.673431,98.326614 
	C150.097717,92.858826 144.772278,87.640747 138.750977,81.740845 
	C146.335632,79.672981 152.937897,77.821655 159.581131,76.131393 
	C160.349030,75.936012 161.607620,76.372520 162.195526,76.959755 
	C171.815155,86.568520 181.363419,96.248734 191.348022,106.337517 
	C184.392700,108.246277 177.931763,110.138977 171.390869,111.695671 
	C170.311127,111.952637 168.603668,111.034096 167.661179,110.151627 
	C163.651352,106.397156 159.820145,102.451920 155.673431,98.326614 
z"/>
<path fill="#FBFBFB" opacity="1.000000" stroke="none" 
	d="
M55.622009,106.377335 
	C55.321289,105.422348 55.107262,104.137558 55.244202,104.098999 
	C61.625004,102.302017 68.024055,100.563560 74.460464,98.978600 
	C75.225777,98.790154 76.468910,99.252625 77.061211,99.843643 
	C86.663589,109.425209 96.196533,119.076370 106.158394,129.128754 
	C99.182892,131.007462 92.685867,132.899902 86.099281,134.398727 
	C84.924507,134.666061 83.061737,133.625504 82.053406,132.639771 
	C73.257027,124.040466 64.582878,115.316109 55.622009,106.377335 
z"/>
<path fill="#FCFCFC" opacity="1.000000" stroke="none" 
	d="
M240.582336,193.603882 
	C245.857239,184.519806 250.849976,175.703217 256.048584,167.009766 
	C256.841522,165.683792 258.549408,164.109085 259.898804,164.046616 
	C266.504791,163.740784 273.132690,163.907990 280.621063,163.907990 
	C275.566345,172.642090 270.047760,180.413742 266.376678,188.977417 
	C262.004425,199.176620 255.398575,203.278854 244.610809,201.293060 
	C242.211487,200.851395 239.661484,201.228271 236.409241,201.228271 
	C237.917191,198.440796 239.142288,196.176193 240.582336,193.603882 
z"/>
<path fill="#FCFCFC" opacity="1.000000" stroke="none" 
	d="
M76.806717,201.228271 
	C71.037506,201.228271 65.740486,201.228271 59.669254,201.228271 
	C66.833481,188.833939 73.655701,176.960861 80.611404,165.166504 
	C81.045181,164.430984 82.520416,163.977524 83.520142,163.961685 
	C90.138992,163.856750 96.760300,163.907394 104.115387,163.907394 
	C97.052917,176.144943 90.415955,187.941299 83.354187,199.477631 
	C82.542374,200.803864 79.361404,200.679855 76.806717,201.228271 
z"/>
<path fill="#FCFCFC" opacity="1.000000" stroke="none" 
	d="
M348.179871,199.719818 
	C344.977478,200.465958 341.976318,201.053329 338.955811,201.179733 
	C334.474518,201.367264 329.979523,201.228271 324.970001,201.228271 
	C325.483582,199.928223 325.750519,198.898727 326.262512,198.010529 
	C332.151520,187.794647 338.186981,177.661011 343.920807,167.359283 
	C345.437805,164.633774 347.158447,163.714462 350.189789,163.836533 
	C356.112396,164.075012 362.051361,163.906525 368.924683,163.906525 
	C361.787872,176.216049 355.080170,187.785446 348.179871,199.719818 
z"/>
<path fill="#FCFCFC" opacity="1.000000" stroke="none" 
	d="
M184.523468,177.531189 
	C180.330521,184.717957 176.424088,191.650085 172.304428,198.453079 
	C171.577225,199.653915 169.988647,201.053391 168.747879,201.102615 
	C162.146698,201.364639 155.529587,201.225922 148.075012,201.225922 
	C150.056335,197.664185 151.666885,194.674637 153.364395,191.735306 
	C158.170807,183.412766 162.896912,175.039139 167.949600,166.868027 
	C168.839371,165.429108 171.114365,164.130264 172.817734,164.039154 
	C179.069977,163.704681 185.350937,163.906555 192.305267,163.906555 
	C189.583008,168.700089 187.160202,172.966354 184.523468,177.531189 
z"/>
<path fill="#565759" opacity="1.000000" stroke="none" 
	d="
M358.122925,23.072990 
	C364.272400,21.410246 370.030670,19.841778 375.782837,18.251072 
	C378.115021,17.606119 379.992615,17.658918 380.752502,20.565722 
	C383.435486,30.829222 386.204865,41.070126 388.908142,51.328384 
	C389.065704,51.926373 388.928528,52.602043 388.928528,52.970222 
	C382.888000,56.689907 378.449341,55.789242 373.757629,50.462952 
	C366.315674,42.014343 357.967072,34.364307 349.374176,25.746725 
	C352.579895,24.753595 355.154572,23.955963 358.122925,23.072990 
z"/>
<path fill="#C2C2C2" opacity="1.000000" stroke="none" 
	d="
M94.646774,245.708191 
	C95.031975,255.090668 95.036331,264.330536 95.064468,274.001282 
	C86.833572,274.432098 78.578896,274.432098 70.005341,274.432098 
	C70.005341,264.914948 70.005341,255.539719 70.005341,245.565582 
	C78.118759,245.565582 86.192337,245.565582 94.646774,245.708191 
z"/>
<path fill="#4E4F50" opacity="1.000000" stroke="none" 
	d="
M45.999119,192.999512 
	C41.506340,202.131348 41.158718,202.314835 31.129877,200.407852 
	C31.129877,189.645981 31.059370,178.754944 31.245785,167.868301 
	C31.263222,166.849915 32.776909,165.174271 33.814453,164.981781 
	C37.191097,164.355270 40.669224,164.275711 44.555290,164.497330 
	C45.000813,171.464584 44.899376,177.922379 45.043411,184.374710 
	C45.107708,187.255325 45.665367,190.124924 45.999119,192.999512 
z"/>
<path fill="#57585A" opacity="1.000000" stroke="none" 
	d="
M46.259323,192.781601 
	C45.665367,190.124924 45.107708,187.255325 45.043411,184.374710 
	C44.899376,177.922379 45.000813,171.464584 45.007523,164.548065 
	C50.738087,164.087143 56.463413,164.087143 62.966400,164.087143 
	C57.238171,174.005157 51.878853,183.284424 46.259323,192.781601 
z"/>
<path fill="#030303" opacity="1.000000" stroke="none" 
	d="
M292.727356,397.395416 
	C277.483795,386.960571 271.563782,370.413513 277.026764,354.086151 
	C282.269257,338.417755 297.786438,327.758942 314.484680,329.211731 
	C330.546600,330.609161 341.871582,339.086334 347.044830,354.521301 
	C351.877350,368.939514 348.540253,382.077393 337.670807,392.480957 
	C326.337128,403.328827 312.759064,405.803101 297.959900,399.973633 
	C296.266541,399.306610 294.661804,398.414490 292.727356,397.395416 
M311.184326,344.956421 
	C298.867340,345.700806 290.454224,355.027039 290.944427,367.393158 
	C291.374054,378.231476 300.846283,387.017120 312.828522,387.022278 
	C325.271027,386.365021 333.453522,377.424408 333.139099,364.829895 
	C332.856506,353.512421 323.702118,344.945801 311.184326,344.956421 
z"/>
<path fill="#030303" opacity="1.000000" stroke="none" 
	d="
M467.975403,342.060394 
	C481.215729,358.684998 479.228882,381.248138 463.632690,394.203308 
	C447.899536,407.272339 424.765869,405.332855 411.678528,389.847626 
	C398.664337,374.448944 400.298004,351.677185 415.382172,338.221191 
	C430.590088,324.654877 453.578156,326.216309 467.975403,342.060394 
M459.895599,373.028351 
	C462.773773,363.046906 459.721802,353.785675 451.769989,348.371094 
	C444.242401,343.245392 433.429016,343.761597 426.155579,349.593903 
	C419.459167,354.963501 416.749878,365.205811 420.035431,373.627777 
	C423.252014,381.873016 429.625763,386.314026 438.265228,386.956696 
	C448.364288,387.707916 455.376221,382.826599 459.895599,373.028351 
z"/>
<path fill="#030303" opacity="1.000000" stroke="none" 
	d="
M359.068420,286.951172 
	C373.323273,280.287628 386.651093,281.372437 398.718048,290.837341 
	C410.817780,300.328003 415.339355,313.199005 411.842560,328.104401 
	C408.344147,343.016754 398.359100,352.374359 383.525635,355.765900 
	C366.161255,359.736053 347.729553,349.496796 341.549683,333.163483 
	C334.797180,315.316742 341.763214,296.630585 359.068420,286.951172 
M374.160339,298.856262 
	C362.050659,299.835785 354.424133,308.655548 354.905518,321.123688 
	C355.328827,332.087280 364.556732,340.666992 376.796112,340.832794 
	C377.609650,340.675720 378.422577,340.515320 379.236816,340.362091 
	C391.323822,338.087585 398.248962,328.992035 396.975464,316.764954 
	C395.780792,305.294678 384.526825,297.318695 374.160339,298.856262 
z"/>
<path fill="#030303" opacity="1.000000" stroke="none" 
	d="
M452.134094,437.242157 
	C453.224548,457.190826 440.987457,473.532104 422.750214,477.011108 
	C403.815460,480.623108 386.332703,470.253204 380.154327,451.745361 
	C374.002899,433.318176 384.497223,412.627502 403.380646,405.952332 
	C421.778503,399.448792 443.036713,409.104401 449.734100,427.149902 
	C450.876068,430.226898 451.317627,433.563812 452.134094,437.242157 
M435.082703,432.703125 
	C430.655792,423.350220 423.212982,419.231201 412.968384,419.886719 
	C405.632812,420.356049 397.863556,426.248016 395.392761,433.527985 
	C392.493225,442.071411 394.431549,449.676025 400.666412,456.009705 
	C407.389282,462.839111 418.198120,463.940369 426.453156,459.003571 
	C435.157013,453.798370 438.424561,444.387634 435.082703,432.703125 
z"/>
<path fill="#020202" opacity="1.000000" stroke="none" 
	d="
M328.169250,404.914001 
	C348.789490,400.373444 368.381561,413.161316 372.784302,433.696075 
	C376.904541,452.913177 363.593536,473.180359 344.366913,476.964050 
	C323.546875,481.061340 303.830261,467.919037 300.095215,447.454254 
	C296.617676,428.400360 307.972748,410.961731 328.169250,404.914001 
M335.178833,419.937317 
	C323.666199,420.731262 314.760803,430.207214 315.082458,441.321228 
	C315.413544,452.762970 324.544373,461.716309 336.836304,461.947601 
	C349.286774,461.331940 358.427429,451.783386 357.900879,439.943115 
	C357.390320,428.462036 347.735931,419.676331 335.178833,419.937317 
z"/>
<path fill="#020202" opacity="1.000000" stroke="none" 
	d="
M389.586304,408.789124 
	C373.821899,416.198883 356.978119,409.903961 351.239441,394.754272 
	C345.768158,380.310516 353.785889,364.274780 368.760498,359.711517 
	C381.141510,355.938629 395.117249,362.148193 400.613678,373.864136 
	C406.577881,386.577240 402.415771,400.108582 389.586304,408.789124 
M366.074310,389.177765 
	C369.303802,395.172668 372.885559,397.180542 378.915649,396.030151 
	C383.440948,395.166840 386.270538,392.346527 387.049805,387.748352 
	C387.907501,382.687286 386.357849,378.501923 381.914429,375.742798 
	C377.972229,373.294922 373.852051,373.730957 370.232361,376.290924 
	C366.097900,379.215027 364.314697,383.310913 366.074310,389.177765 
z"/>
<path fill="#020202" opacity="1.000000" stroke="none" 
	d="
M87.336014,347.556519 
	C87.804161,341.171295 90.329262,338.331177 96.316864,338.247070 
	C110.790939,338.043671 125.271446,338.058228 139.745911,338.247986 
	C145.059570,338.317627 148.827911,342.097351 148.769257,346.414276 
	C148.709351,350.822784 144.897507,354.003143 139.389648,354.021423 
	C125.079193,354.068939 110.768349,354.002502 96.457954,354.057587 
	C91.970665,354.074860 88.665543,352.592926 87.336014,347.556519 
z"/>
<path fill="#020202" opacity="1.000000" stroke="none" 
	d="
M105.036453,307.168182 
	C115.997787,307.168213 126.465317,307.133698 136.932236,307.198639 
	C138.898773,307.210815 140.913559,307.415771 142.817657,307.888153 
	C146.996338,308.924927 148.995895,312.093506 148.553223,316.040436 
	C148.114136,319.955322 145.512054,322.898590 141.250534,322.938660 
	C125.800545,323.084045 110.348091,323.060547 94.897324,322.970673 
	C90.390549,322.944458 87.683617,320.186676 87.282784,315.904205 
	C86.874107,311.537720 89.297195,308.486206 93.655197,307.781158 
	C97.223946,307.203857 100.908966,307.345245 105.036453,307.168182 
z"/>
<path fill="#57585A" opacity="1.000000" stroke="none" 
	d="
M312.006470,345.054108 
	C323.702118,344.945801 332.856506,353.512421 333.139099,364.829895 
	C333.453522,377.424408 325.271027,386.365021 312.376801,386.633118 
	C305.509674,378.042908 301.738831,369.020386 305.176514,358.609650 
	C306.745667,353.857513 309.687317,349.558594 312.006470,345.054108 
z"/>
<path fill="#4E4F51" opacity="1.000000" stroke="none" 
	d="
M311.595398,345.005249 
	C309.687317,349.558594 306.745667,353.857513 305.176514,358.609650 
	C301.738831,369.020386 305.509674,378.042908 311.966614,386.587006 
	C300.846283,387.017120 291.374054,378.231476 290.944427,367.393158 
	C290.454224,355.027039 298.867340,345.700806 311.595398,345.005249 
z"/>
<path fill="#57585A" opacity="1.000000" stroke="none" 
	d="
M459.753662,373.397186 
	C455.376221,382.826599 448.364288,387.707916 438.265228,386.956696 
	C429.625763,386.314026 423.252014,381.873016 420.035431,373.627777 
	C416.749878,365.205811 419.459167,354.963501 426.155579,349.593903 
	C433.429016,343.761597 444.242401,343.245392 451.769989,348.371094 
	C459.721802,353.785675 462.773773,363.046906 459.753662,373.397186 
z"/>
<path fill="#57585A" opacity="1.000000" stroke="none" 
	d="
M374.983826,298.906677 
	C384.526825,297.318695 395.780792,305.294678 396.975464,316.764954 
	C398.248962,328.992035 391.323822,338.087585 379.236816,340.362091 
	C378.422577,340.515320 377.609650,340.675720 376.356018,340.469116 
	C375.462067,339.422760 375.056702,338.701355 374.547058,338.063202 
	C366.546539,328.044678 365.762268,315.093536 372.431580,304.193878 
	C373.447968,302.532837 374.141174,300.674042 374.983826,298.906677 
z"/>
<path fill="#4E4F50" opacity="1.000000" stroke="none" 
	d="
M374.572083,298.881470 
	C374.141174,300.674042 373.447968,302.532837 372.431580,304.193878 
	C365.762268,315.093536 366.546539,328.044678 374.547058,338.063202 
	C375.056702,338.701355 375.462067,339.422760 375.971191,340.433228 
	C364.556732,340.666992 355.328827,332.087280 354.905518,321.123688 
	C354.424133,308.655548 362.050659,299.835785 374.572083,298.881470 
z"/>
<path fill="#57585A" opacity="1.000000" stroke="none" 
	d="
M435.204163,433.076904 
	C438.424561,444.387634 435.157013,453.798370 426.453156,459.003571 
	C418.198120,463.940369 407.389282,462.839111 400.666412,456.009705 
	C394.431549,449.676025 392.493225,442.071411 395.392761,433.527985 
	C397.863556,426.248016 405.632812,420.356049 412.968384,419.886719 
	C423.212982,419.231201 430.655792,423.350220 435.204163,433.076904 
z"/>
<path fill="#57585A" opacity="1.000000" stroke="none" 
	d="
M336.001953,420.014587 
	C347.735931,419.676331 357.390320,428.462036 357.900879,439.943115 
	C358.427429,451.783386 349.286774,461.331940 336.378906,461.556580 
	C335.514038,460.264648 335.237030,459.272308 334.679535,458.476532 
	C326.565796,446.894897 326.625275,435.247040 334.260803,423.477692 
	C334.959808,422.400299 335.427094,421.172516 336.001953,420.014587 
z"/>
<path fill="#4E4F51" opacity="1.000000" stroke="none" 
	d="
M335.590393,419.975952 
	C335.427094,421.172516 334.959808,422.400299 334.260803,423.477692 
	C326.625275,435.247040 326.565796,446.894897 334.679535,458.476532 
	C335.237030,459.272308 335.514038,460.264648 335.969147,461.507141 
	C324.544373,461.716309 315.413544,452.762970 315.082458,441.321228 
	C314.760803,430.207214 323.666199,420.731262 335.590393,419.975952 
z"/>
<path fill="#565759" opacity="1.000000" stroke="none" 
	d="
M365.975098,388.809143 
	C364.314697,383.310913 366.097900,379.215027 370.232361,376.290924 
	C373.852051,373.730957 377.972229,373.294922 381.914429,375.742798 
	C386.357849,378.501923 387.907501,382.687286 387.049805,387.748352 
	C386.270538,392.346527 383.440948,395.166840 378.915649,396.030151 
	C372.885559,397.180542 369.303802,395.172668 365.975098,388.809143 
z"/>
</svg>